<svg width="25" height="26" viewBox="0 0 25 26" fill="none" xmlns="http://www.w3.org/2000/svg">
<path fill-rule="evenodd" clip-rule="evenodd" d="M12.4994 0C9.95164 0 7.50824 0.987414 5.70671 2.74502C3.90519 4.50263 2.8931 6.88646 2.8931 9.37209V10.2234C2.89303 11.0662 2.63727 11.8901 2.15806 12.5913L0.736335 14.6749C-0.917185 17.0935 0.344647 20.3804 3.21909 21.1447C4.15534 21.3938 5.09903 21.6046 6.05016 21.7771L6.05264 21.7832C7.00459 24.2647 9.5518 26 12.4994 26C15.447 26 17.9942 24.2647 18.9474 21.7832L18.9498 21.7771C19.9019 21.6036 20.8463 21.3926 21.7809 21.1447C24.6554 20.3804 25.9172 17.0935 24.2637 14.6749L22.8407 12.5913C22.3615 11.8901 22.1057 11.0662 22.1057 10.2234V9.37209C22.1057 6.88646 21.0936 4.50263 19.292 2.74502C17.4905 0.987414 15.0471 0 12.4994 0ZM16.684 22.1145C13.9037 22.4382 11.0938 22.4382 8.31352 22.1145C9.19482 23.3492 10.7281 24.186 12.4994 24.186C14.2707 24.186 15.8027 23.3492 16.684 22.1145ZM4.75238 9.37209C4.75238 7.36755 5.56858 5.44511 7.02142 4.02768C8.47427 2.61026 10.4447 1.81395 12.4994 1.81395C14.554 1.81395 16.5245 2.61026 17.9773 4.02768C19.4302 5.44511 20.2464 7.36755 20.2464 9.37209V10.2234C20.2464 11.4243 20.6108 12.5985 21.2938 13.5974L22.7167 15.681C22.9372 16.0032 23.076 16.3719 23.1217 16.7567C23.1673 17.1415 23.1185 17.5314 22.9793 17.8942C22.84 18.257 22.6143 18.5823 22.3209 18.8432C22.0274 19.1041 21.6745 19.2932 21.2913 19.3948C15.5347 20.9265 9.4628 20.9265 3.70623 19.3948C3.32326 19.2931 2.97055 19.104 2.6772 18.8432C2.38385 18.5824 2.15826 18.2573 2.01903 17.8946C1.87981 17.532 1.83093 17.1423 1.87644 16.7576C1.92195 16.373 2.06054 16.0044 2.28078 15.6822L3.70623 13.5974C4.38863 12.5981 4.75263 11.4242 4.75238 10.2234V9.37209Z" fill="#236F8F"/>
</svg>
